<svg width="18" height="16" viewBox="0 0 18 16" fill="none" xmlns="http://www.w3.org/2000/svg">
<path d="M17.2954 13.7479C17.2954 13.7479 17.2954 13.7479 17.2951 13.7475C16.1331 11.364 14.1852 7.9833 12.4668 5.00072C11.5676 3.43963 10.7181 1.96558 10.1041 0.845181C9.81432 0.316056 9.29937 0 8.72689 0C8.1544 0 7.63949 0.316056 7.34972 0.845181C6.73533 1.96626 5.88551 3.44178 4.98528 5.00393C3.26788 7.98579 1.32071 11.365 0.159102 13.7479C0.0536249 13.9648 0 14.1946 0 14.43C0 15.2958 0.699238 16 1.55901 16L8.72726 15.9993L15.8955 16C16.7553 16 17.4545 15.2958 17.4545 14.43C17.4545 14.1946 17.4009 13.9648 17.2954 13.7479ZM15.8956 15.2731H1.55966C1.1012 15.2731 0.727976 14.8945 0.727976 14.43C0.727976 14.3058 0.756749 14.1832 0.813544 14.0664C1.96411 11.7063 3.90446 8.33842 5.61609 5.3672C6.51807 3.80151 7.37 2.32244 7.9879 1.19461C8.30822 0.609374 9.14627 0.609374 9.46659 1.19461C10.0841 2.32176 10.9353 3.79936 11.8366 5.36365C13.5493 8.33597 15.4904 11.7053 16.6413 14.0661C16.6985 14.1833 16.7273 14.3058 16.7273 14.43C16.7273 14.8945 16.354 15.2731 15.8956 15.2731Z" fill="white"/>
<path d="M8.72729 3.63672C8.5263 3.63672 8.36365 3.79937 8.36365 4.00037V11.2731C8.36365 11.4741 8.5263 11.6367 8.72729 11.6367C8.92829 11.6367 9.09094 11.4741 9.09094 11.2731V4.00037C9.09094 3.79937 8.92829 3.63672 8.72729 3.63672Z" fill="white"/>
<path d="M8.72729 13.8181C8.92813 13.8181 9.09094 13.6553 9.09094 13.4545C9.09094 13.2536 8.92813 13.0908 8.72729 13.0908C8.52646 13.0908 8.36365 13.2536 8.36365 13.4545C8.36365 13.6553 8.52646 13.8181 8.72729 13.8181Z" fill="white"/>
</svg>
