<svg width="18" height="21" viewBox="0 0 18 21" fill="none" xmlns="http://www.w3.org/2000/svg">
<path d="M16.0299 7.72771H14.66H1.86304C1.17544 7.72771 0.615905 7.16914 0.614171 6.48186V6.47856C0.614171 6.47823 0.614131 6.47791 0.614131 6.47759C0.614776 5.78947 1.17476 5.22981 1.86304 5.22981H3.98078C4.15041 5.22981 4.28783 5.09236 4.28783 4.92277C4.28783 4.75318 4.15041 4.61572 3.98078 4.61572H1.86304C0.835736 4.61572 0 5.4515 0 6.4788C0 6.47985 8.05979e-05 6.4809 8.05979e-05 6.48194V16.7451C8.05979e-05 16.9147 0.137535 17.0521 0.307126 17.0521C0.476757 17.0521 0.614171 16.9147 0.614171 16.7451V7.86C0.944844 8.15926 1.38297 8.3418 1.86304 8.3418H14.66H16.0299C16.3772 8.3418 16.6597 8.62429 16.6597 8.97153V11.1458C16.6597 11.3154 16.7972 11.4529 16.9668 11.4529C17.1363 11.4529 17.2738 11.3154 17.2738 11.1458V8.97153C17.2738 8.28571 16.7158 7.72771 16.0299 7.72771Z" fill="white"/>
<path d="M16.9667 16.3212C16.7971 16.3212 16.6597 16.4586 16.6597 16.6282V19.4006C16.6597 19.7478 16.3772 20.0303 16.0299 20.0303H1.86286C1.17433 20.0303 0.614151 19.4699 0.614151 18.7812V17.7687C0.614151 17.5991 0.476737 17.4616 0.307106 17.4616C0.137516 17.4616 6.10352e-05 17.5991 6.10352e-05 17.7687V18.7812C6.10352e-05 19.8086 0.835716 20.6444 1.86286 20.6444H16.0299C16.7158 20.6444 17.2738 20.0864 17.2738 19.4006V16.6282C17.2737 16.4586 17.1363 16.3212 16.9667 16.3212Z" fill="white"/>
<path d="M16.3134 4.61584H16.0697C15.9001 4.61584 15.7627 4.7533 15.7627 4.92289C15.7627 5.09248 15.9002 5.22993 16.0697 5.22993H16.3134C16.5044 5.22993 16.6598 5.38529 16.6598 5.57625V7.35143C16.6598 7.52102 16.7972 7.65847 16.9668 7.65847C17.1364 7.65847 17.2739 7.52102 17.2739 7.35143V5.57625C17.2738 5.04663 16.843 4.61584 16.3134 4.61584Z" fill="white"/>
<path d="M15.2621 4.50209L11.1206 0.360672C10.8881 0.1281 10.5788 0 10.2498 0C9.92069 0 9.61139 0.1281 9.3789 0.360672L8.04999 1.68953C7.93004 1.80945 7.93004 2.00384 8.04995 2.12375C8.16987 2.24367 8.3643 2.24367 8.48417 2.12375L9.81311 0.79489C9.92968 0.678282 10.0848 0.61409 10.2498 0.61409C10.4148 0.61409 10.5698 0.678282 10.6864 0.79489L14.8278 4.93631C15.0686 5.17707 15.0686 5.56887 14.8278 5.80967L13.8761 6.76136C13.7562 6.88128 13.7562 7.07567 13.8761 7.19558C13.936 7.25554 14.0146 7.28554 14.0932 7.28554C14.1717 7.28554 14.2504 7.25558 14.3103 7.19558L15.2621 6.24388C15.7423 5.76366 15.7423 4.98232 15.2621 4.50209Z" fill="white"/>
<path d="M7.77806 2.39572C7.65814 2.27581 7.46376 2.27581 7.3438 2.39572L2.97812 6.76133C2.8582 6.88124 2.8582 7.07567 2.97812 7.19559C3.03808 7.25554 3.11666 7.28554 3.19525 7.28554C3.27379 7.28554 3.35242 7.25558 3.41238 7.19559L7.77806 2.82994C7.89797 2.71003 7.89797 2.5156 7.77806 2.39572Z" fill="white"/>
<path d="M13.4065 6.25756C13.3805 6.15301 13.3016 6.06975 13.1985 6.03821C13.0885 6.00451 12.9918 5.94632 12.9104 5.86467C12.779 5.73343 12.7066 5.5588 12.7066 5.37304C12.7066 5.18728 12.779 5.01261 12.911 4.88088C12.9918 4.79979 13.0885 4.74157 13.1985 4.70786C13.3016 4.67629 13.3805 4.59307 13.4065 4.48851C13.4326 4.38396 13.4019 4.27336 13.3257 4.1972L11.4256 2.29711C11.3495 2.2209 11.2389 2.19025 11.1343 2.21626C11.0298 2.24231 10.9465 2.32122 10.915 2.42432C10.8814 2.53391 10.8231 2.6308 10.7415 2.71241C10.6102 2.84378 10.4356 2.91615 10.2498 2.91615C10.064 2.91615 9.88933 2.84378 9.75764 2.71193C9.67652 2.63108 9.61829 2.53435 9.58463 2.4244C9.55305 2.32134 9.46979 2.24239 9.36528 2.2163C9.26081 2.19017 9.15009 2.2209 9.07392 2.29711L4.60989 6.76133C4.48997 6.88125 4.48997 7.07568 4.60993 7.19559C4.7298 7.31551 4.92423 7.31546 5.04415 7.19559L9.21545 3.02393C9.24887 3.06696 9.285 3.10788 9.32363 3.14635C9.57088 3.39388 9.89978 3.5302 10.2497 3.5302C10.2498 3.5302 10.2498 3.5302 10.2498 3.5302C10.5997 3.5302 10.9286 3.39388 11.1758 3.14647C11.2144 3.10788 11.2505 3.06683 11.284 3.02377L12.5989 4.33864C12.5558 4.37211 12.5149 4.40824 12.4764 4.44686C12.2289 4.69411 12.0926 5.02301 12.0926 5.373C12.0926 5.72298 12.2289 6.05188 12.4759 6.29857C12.5145 6.3374 12.5557 6.37369 12.5989 6.40727L12.2448 6.76141C12.1248 6.88133 12.1248 7.07576 12.2447 7.19567C12.3047 7.25563 12.3833 7.28563 12.4619 7.28563C12.5404 7.28563 12.619 7.25567 12.679 7.19567L13.3257 6.54896C13.4019 6.47267 13.4326 6.36211 13.4065 6.25756Z" fill="white"/>
<path d="M10.3093 6.90855C10.2186 6.52094 10.0214 6.1666 9.73871 5.88395C9.33449 5.47973 8.797 5.25708 8.22533 5.25708C7.65369 5.25708 7.11625 5.47969 6.71195 5.88399C6.42934 6.16664 6.23201 6.52094 6.14137 6.90859C6.10278 7.07374 6.20532 7.23886 6.37047 7.27749C6.53555 7.31603 6.7007 7.2135 6.73933 7.04838C6.80388 6.7723 6.9446 6.51981 7.14617 6.31821C7.43443 6.02991 7.8176 5.87121 8.22525 5.87121C8.6329 5.87121 9.01611 6.02995 9.30436 6.31817C9.50597 6.51977 9.64661 6.7723 9.71121 7.04834C9.74431 7.18995 9.87051 7.28555 10.0099 7.28555C10.033 7.28555 10.0566 7.28293 10.0801 7.27745C10.2453 7.23886 10.3478 7.0737 10.3093 6.90855Z" fill="white"/>
<path d="M17.0141 11.6577H14.2756C13.0463 11.6577 12.0463 12.6578 12.0463 13.887C12.0463 15.1163 13.0463 16.1163 14.2756 16.1163H17.0141C17.5578 16.1163 18 15.6741 18 15.1305V12.6436C18 12.1 17.5578 11.6577 17.0141 11.6577ZM17.3859 15.1305C17.3859 15.3355 17.2191 15.5023 17.0141 15.5023H14.2756C13.3849 15.5023 12.6604 14.7777 12.6604 13.887C12.6604 12.9964 13.3849 12.2718 14.2756 12.2718H17.0141C17.2191 12.2718 17.3859 12.4386 17.3859 12.6436V15.1305Z" fill="white"/>
<path d="M14.2329 12.811C13.6396 12.811 13.1569 13.2937 13.1569 13.887C13.1569 14.4803 13.6396 14.963 14.2329 14.963C14.8261 14.963 15.3088 14.4803 15.3088 13.887C15.3088 13.2937 14.8261 12.811 14.2329 12.811ZM14.2329 14.3489C13.9782 14.3489 13.771 14.1417 13.771 13.887C13.771 13.6323 13.9782 13.4251 14.2329 13.4251C14.4875 13.4251 14.6947 13.6323 14.6947 13.887C14.6947 14.1417 14.4876 14.3489 14.2329 14.3489Z" fill="white"/>
</svg>
